<svg width="545" height="120" viewBox="0 0 545 120" fill="none" xmlns="http://www.w3.org/2000/svg">
<path d="M39.7266 59.8027L0 59.8027C2.41061e-06 75.7675 6.34198 91.0784 17.6308 102.367C28.9196 113.656 44.2305 119.998 60.1952 119.998C76.16 119.998 91.4709 113.656 102.76 102.367C114.048 91.0784 120.39 75.7675 120.39 59.8027L80.6563 59.8027C79.296 65.8448 75.446 70.6814 66.9819 81.3146C64.985 83.8232 62.7313 86.6545 60.1929 89.9004L60.1901 89.9006C57.652 86.6552 55.3986 83.8243 53.402 81.3159L53.4008 81.3145C44.9367 70.6813 41.0868 65.8448 39.7266 59.8027Z" fill="url(#paint0_linear_5327_1609)"/>
<path d="M39.7266 59.8027L0 59.8027C2.41061e-06 75.7675 6.34198 91.0784 17.6308 102.367C28.9196 113.656 44.2305 119.998 60.1952 119.998C76.16 119.998 91.4709 113.656 102.76 102.367C114.048 91.0784 120.39 75.7675 120.39 59.8027L80.6563 59.8027C79.296 65.8448 75.446 70.6814 66.9819 81.3146C64.985 83.8232 62.7313 86.6545 60.1929 89.9004L60.1901 89.9006C57.652 86.6552 55.3986 83.8243 53.402 81.3159L53.4008 81.3145C44.9367 70.6813 41.0868 65.8448 39.7266 59.8027Z" fill="url(#paint1_linear_5327_1609)"/>
<mask id="mask0_5327_1609" style="mask-type:alpha" maskUnits="userSpaceOnUse" x="0" y="59" width="121" height="61">
<path d="M39.7266 59.8027L0 59.8027C2.41061e-06 75.7675 6.34198 91.0784 17.6308 102.367C28.9196 113.656 44.2305 119.998 60.1952 119.998C76.16 119.998 91.4709 113.656 102.76 102.367C114.048 91.0784 120.39 75.7675 120.39 59.8027L80.6563 59.8027C79.296 65.8448 75.446 70.6814 66.9819 81.3146C64.985 83.8232 62.7313 86.6545 60.1929 89.9004L60.1901 89.9006C57.652 86.6552 55.3986 83.8243 53.402 81.3159L53.4008 81.3145C44.9367 70.6813 41.0868 65.8448 39.7266 59.8027Z" fill="url(#paint2_linear_5327_1609)"/>
</mask>
<g mask="url(#mask0_5327_1609)">
<path d="M120.39 60.1952C120.39 44.2305 114.048 28.9196 102.76 17.6308C91.4709 6.34198 76.16 1.20531e-06 60.1952 0C44.2305 -1.20531e-06 28.9196 6.34197 17.6308 17.6308C6.34198 28.9196 2.41061e-06 44.2304 0 60.1952L60.1952 60.1952H120.39Z" fill="#00BEB2"/>
<path fill-rule="evenodd" clip-rule="evenodd" d="M102.76 17.6308C114.048 28.9196 120.39 44.2305 120.39 60.1952H80.5634C81.0592 58.173 81.2663 56.0309 81.2663 53.4999C81.2663 41.8608 71.8311 32.4254 60.1922 32.4251L60.1894 32.4251C48.5504 32.4254 39.1151 41.8608 39.1151 53.4999C39.1151 56.031 39.3222 58.1731 39.818 60.1952L0 60.1952C2.41061e-06 44.2304 6.34198 28.9196 17.6308 17.6308C28.9196 6.34197 44.2305 0 60.1952 0C76.16 0 91.4709 6.34198 102.76 17.6308Z" fill="white"/>
</g>
<mask id="mask1_5327_1609" style="mask-type:alpha" maskUnits="userSpaceOnUse" x="0" y="0" width="121" height="61">
<path fill-rule="evenodd" clip-rule="evenodd" d="M102.76 17.6308C114.048 28.9196 120.39 44.2305 120.39 60.1952H80.5634C81.0592 58.173 81.2663 56.0309 81.2663 53.4999C81.2663 41.8608 71.8311 32.4254 60.1922 32.4251L60.1894 32.4251C48.5504 32.4254 39.1151 41.8608 39.1151 53.4999C39.1151 56.031 39.3222 58.1731 39.818 60.1952L0 60.1952C2.41061e-06 44.2304 6.34198 28.9196 17.6308 17.6308C28.9196 6.34197 44.2305 0 60.1952 0C76.16 0 91.4709 6.34198 102.76 17.6308Z" fill="#00BEB2"/>
</mask>
<g mask="url(#mask1_5327_1609)">
<g filter="url(#filter0_f_5327_1609)">
<path d="M8.51872 45.4688C-23.9861 64.0004 -9.33774 106.747 -49.0567 146.983C-88.7756 187.219 122.616 116.539 93.8221 113.597C65.0282 110.655 38.8195 28.1938 8.51872 45.4688Z" fill="#00C5B9"/>
</g>
<g filter="url(#filter1_f_5327_1609)">
<circle cx="122.454" cy="34.3346" r="75.4729" transform="rotate(-19.7737 122.454 34.3346)" fill="url(#paint3_linear_5327_1609)"/>
</g>
</g>
<path d="M150.674 81.6824L166.821 40.8776H175.273L191.304 81.6824H181.277L173.525 60.9886C173.253 60.1725 172.942 59.2981 172.592 58.3654C172.281 57.4327 171.97 56.4612 171.659 55.4508C171.348 54.4404 171.057 53.4688 170.785 52.5361C170.513 51.6034 170.28 50.7291 170.085 49.913L171.776 49.8547C171.543 50.8262 171.29 51.7783 171.018 52.711C170.746 53.6437 170.454 54.5764 170.144 55.5091C169.833 56.4417 169.502 57.3744 169.153 58.3071C168.842 59.2009 168.511 60.1336 168.162 61.1051L160.467 81.6824H150.674ZM158.368 73.8712L161.516 66.2932H180.17L183.318 73.8712H158.368Z" fill="black"/>
<path d="M204.435 72.5888L201.112 65.4771L215.511 50.7291H227.81L204.435 72.5888ZM195.458 81.6824V38.5459H204.843V81.6824H195.458ZM216.385 81.6824L205.601 67.6922L212.246 62.5625L227.519 81.6824H216.385Z" fill="black"/>
<path d="M247.192 81.6824V62.679C247.192 61.0857 246.745 59.9199 245.852 59.1815C244.997 58.4043 243.792 58.0156 242.237 58.0156C240.722 58.0156 239.362 58.3071 238.157 58.89C236.991 59.4341 235.864 60.3473 234.776 61.6298L229.18 56.2086C231.045 54.3043 233.183 52.8082 235.592 51.72C238.001 50.6319 240.625 50.0878 243.462 50.0878C246.065 50.0878 248.319 50.4765 250.224 51.2537C252.128 52.0309 253.604 53.2162 254.654 54.8095C255.703 56.4029 256.228 58.4237 256.228 60.872V81.6824H247.192ZM239.148 82.2654C237.205 82.2654 235.437 81.8767 233.843 81.0995C232.289 80.3223 231.045 79.2536 230.113 77.8934C229.219 76.4944 228.772 74.8622 228.772 72.9968C228.772 71.4035 229.063 70.0045 229.646 68.7998C230.229 67.5951 231.084 66.6041 232.211 65.8268C233.377 65.0107 234.815 64.4084 236.525 64.0198C238.274 63.5923 240.294 63.3786 242.587 63.3786H251.972L251.448 69.2661H242.82C242.004 69.2661 241.285 69.3438 240.664 69.4993C240.042 69.6159 239.517 69.8296 239.09 70.1405C238.662 70.4125 238.332 70.7429 238.099 71.1315C237.904 71.5201 237.807 71.9864 237.807 72.5305C237.807 73.1134 237.963 73.6186 238.274 74.0461C238.584 74.4736 238.992 74.8039 239.498 75.0371C240.042 75.2702 240.664 75.3868 241.363 75.3868C242.373 75.3868 243.326 75.2314 244.219 74.9205C245.152 74.5707 245.968 74.085 246.668 73.4632C247.406 72.8414 247.989 72.1224 248.416 71.3064L250.049 75.5034C249.233 76.8247 248.242 77.9906 247.076 79.001C245.949 80.0114 244.705 80.808 243.345 81.391C242.024 81.9739 240.625 82.2654 239.148 82.2654Z" fill="black"/>
<path d="M272.69 72.5888L269.367 65.4771L283.765 50.7291H296.065L272.69 72.5888ZM263.713 81.6824V38.5459H273.098V81.6824H263.713ZM284.64 81.6824L273.856 67.6922L280.501 62.5625L295.774 81.6824H284.64Z" fill="black"/>
<path d="M315.447 81.6824V62.679C315.447 61.0857 315 59.9199 314.106 59.1815C313.251 58.4043 312.047 58.0156 310.492 58.0156C308.977 58.0156 307.616 58.3071 306.412 58.89C305.246 59.4341 304.119 60.3473 303.031 61.6298L297.435 56.2086C299.3 54.3043 301.437 52.8082 303.847 51.72C306.256 50.6319 308.879 50.0878 311.716 50.0878C314.32 50.0878 316.574 50.4765 318.478 51.2537C320.382 52.0309 321.859 53.2162 322.908 54.8095C323.958 56.4029 324.482 58.4237 324.482 60.872V81.6824H315.447ZM307.403 82.2654C305.46 82.2654 303.691 81.8767 302.098 81.0995C300.544 80.3223 299.3 79.2536 298.367 77.8934C297.473 76.4944 297.027 74.8622 297.027 72.9968C297.027 71.4035 297.318 70.0045 297.901 68.7998C298.484 67.5951 299.339 66.6041 300.466 65.8268C301.632 65.0107 303.07 64.4084 304.779 64.0198C306.528 63.5923 308.549 63.3786 310.842 63.3786H320.227L319.702 69.2661H311.075C310.259 69.2661 309.54 69.3438 308.918 69.4993C308.296 69.6159 307.772 69.8296 307.344 70.1405C306.917 70.4125 306.587 70.7429 306.353 71.1315C306.159 71.5201 306.062 71.9864 306.062 72.5305C306.062 73.1134 306.217 73.6186 306.528 74.0461C306.839 74.4736 307.247 74.8039 307.752 75.0371C308.296 75.2702 308.918 75.3868 309.618 75.3868C310.628 75.3868 311.58 75.2314 312.474 74.9205C313.407 74.5707 314.223 74.085 314.922 73.4632C315.661 72.8414 316.244 72.1224 316.671 71.3064L318.303 75.5034C317.487 76.8247 316.496 77.9906 315.33 79.001C314.203 80.0114 312.96 80.808 311.6 81.391C310.278 81.9739 308.879 82.2654 307.403 82.2654Z" fill="black"/>
<path d="M340.367 81.6841V40.8792H344.972V81.6841H340.367ZM342.466 63.4968V59.0082H362.752V63.4968H342.466ZM342.524 45.3095V40.8792H365.608V45.3095H342.524Z" fill="black"/>
<path d="M374.105 81.6841V51.0805H378.536V81.6841H374.105ZM376.262 43.9105C375.252 43.9105 374.455 43.6384 373.872 43.0944C373.328 42.5114 373.056 41.7536 373.056 40.821C373.056 39.8883 373.328 39.1499 373.872 38.6058C374.455 38.0229 375.252 37.7314 376.262 37.7314C377.273 37.7314 378.05 38.0035 378.594 38.5475C379.177 39.0916 379.468 39.8494 379.468 40.821C379.468 41.7148 379.196 42.4531 378.652 43.0361C378.108 43.619 377.312 43.9105 376.262 43.9105Z" fill="black"/>
<path d="M387.688 81.6841V51.0805H392.118V57.6092L391.243 58.1339C391.671 56.7737 392.448 55.5301 393.575 54.4031C394.702 53.2761 396.062 52.3629 397.656 51.6634C399.249 50.925 400.901 50.5558 402.611 50.5558C404.903 50.5558 406.827 51.0027 408.381 51.8965C409.975 52.7515 411.18 54.0922 411.996 55.9187C412.812 57.7452 413.22 60.0575 413.22 62.8556V81.6841H408.79V63.147C408.79 61.1651 408.498 59.5329 407.915 58.2504C407.371 56.968 406.536 56.0353 405.409 55.4524C404.32 54.8695 402.941 54.5974 401.27 54.6363C399.948 54.6363 398.724 54.85 397.597 55.2775C396.509 55.705 395.557 56.2879 394.741 57.0263C393.925 57.7258 393.284 58.5225 392.817 59.4163C392.351 60.2713 392.118 61.1262 392.118 61.9812V81.6841H389.961C389.611 81.6841 389.242 81.6841 388.853 81.6841C388.465 81.6841 388.076 81.6841 387.688 81.6841Z" fill="black"/>
<path d="M440.684 81.6841V61.2817C440.684 59.2997 439.985 57.7064 438.586 56.5017C437.187 55.297 435.341 54.6946 433.048 54.6946C431.144 54.6946 429.414 55.0832 427.86 55.8604C426.305 56.6377 424.926 57.8035 423.721 59.358L420.806 56.4434C422.555 54.4614 424.459 52.9847 426.519 52.0131C428.618 51.0416 430.891 50.5558 433.339 50.5558C435.671 50.5558 437.692 50.9444 439.402 51.7217C441.112 52.4989 442.414 53.6259 443.307 55.1026C444.24 56.5794 444.706 58.367 444.706 60.4656V81.6841H440.684ZM430.192 82.267C428.21 82.267 426.441 81.8784 424.887 81.1012C423.332 80.3239 422.089 79.2552 421.156 77.8951C420.262 76.496 419.815 74.8638 419.815 72.9985C419.815 71.4829 420.088 70.1421 420.632 68.9763C421.215 67.8104 422.05 66.8389 423.138 66.0617C424.226 65.2844 425.606 64.7015 427.277 64.3129C428.948 63.8854 430.852 63.6717 432.99 63.6717H442.666L442.316 67.3441H432.407C431.047 67.3441 429.842 67.4607 428.793 67.6938C427.782 67.927 426.908 68.2962 426.169 68.8014C425.47 69.2677 424.926 69.8507 424.537 70.5502C424.187 71.2108 424.013 72.0075 424.013 72.9402C424.013 74.0283 424.285 74.9999 424.829 75.8548C425.412 76.6709 426.169 77.3121 427.102 77.7785C428.074 78.206 429.162 78.4197 430.366 78.4197C431.96 78.4197 433.456 78.1477 434.855 77.6036C436.254 77.0207 437.498 76.2434 438.586 75.2719C439.713 74.2615 440.607 73.1345 441.267 71.8909L442.491 74.689C441.636 76.1657 440.568 77.487 439.285 78.6529C438.003 79.7799 436.584 80.6737 435.03 81.3343C433.514 81.9561 431.901 82.267 430.192 82.267Z" fill="black"/>
<path d="M452.527 81.6841V51.0805H456.957V57.6092L456.083 58.1339C456.51 56.7737 457.287 55.5301 458.414 54.4031C459.541 53.2761 460.901 52.3629 462.495 51.6634C464.088 50.925 465.74 50.5558 467.45 50.5558C469.743 50.5558 471.666 51.0027 473.221 51.8965C474.814 52.7515 476.019 54.0922 476.835 55.9187C477.651 57.7452 478.059 60.0575 478.059 62.8556V81.6841H473.629V63.147C473.629 61.1651 473.337 59.5329 472.754 58.2504C472.21 56.968 471.375 56.0353 470.248 55.4524C469.16 54.8695 467.78 54.5974 466.109 54.6363C464.788 54.6363 463.563 54.85 462.436 55.2775C461.348 55.705 460.396 56.2879 459.58 57.0263C458.764 57.7258 458.123 58.5225 457.656 59.4163C457.19 60.2713 456.957 61.1262 456.957 61.9812V81.6841H454.8C454.45 81.6841 454.081 81.6841 453.693 81.6841C453.304 81.6841 452.915 81.6841 452.527 81.6841Z" fill="black"/>
<path d="M499.461 82.267C496.546 82.267 493.943 81.5675 491.65 80.1685C489.396 78.7694 487.608 76.8847 486.287 74.5141C485.004 72.1047 484.363 69.3843 484.363 66.3531C484.363 63.3608 485.004 60.6793 486.287 58.3087C487.608 55.8993 489.396 54.0145 491.65 52.6544C493.943 51.2553 496.546 50.5558 499.461 50.5558C502.104 50.5558 504.494 51.0805 506.631 52.1297C508.768 53.1401 510.459 54.5586 511.702 56.3851L509.138 59.4163C508.438 58.4836 507.583 57.6675 506.573 56.968C505.562 56.2296 504.474 55.6661 503.308 55.2775C502.142 54.85 500.977 54.6363 499.811 54.6363C497.673 54.6363 495.75 55.1415 494.04 56.1519C492.369 57.1623 491.047 58.5613 490.076 60.349C489.104 62.0978 488.619 64.0991 488.619 66.3531C488.619 68.6071 489.104 70.6279 490.076 72.4156C491.086 74.2032 492.446 75.6216 494.156 76.6709C495.866 77.7202 497.77 78.2448 499.869 78.2448C501.035 78.2448 502.162 78.0699 503.25 77.7202C504.377 77.3316 505.426 76.7875 506.398 76.088C507.369 75.3885 508.283 74.5335 509.138 73.5231L511.644 76.6126C510.362 78.2837 508.613 79.6438 506.398 80.6931C504.222 81.7424 501.909 82.267 499.461 82.267Z" fill="black"/>
<path d="M531.127 82.267C528.057 82.267 525.337 81.6064 522.966 80.2851C520.596 78.9249 518.73 77.0595 517.37 74.689C516.049 72.3184 515.388 69.6175 515.388 66.5863C515.388 64.2157 515.757 62.0589 516.496 60.1158C517.273 58.1339 518.322 56.4434 519.643 55.0444C521.004 53.6065 522.616 52.4989 524.482 51.7217C526.347 50.9444 528.387 50.5558 530.602 50.5558C532.546 50.5558 534.353 50.9056 536.024 51.6051C537.734 52.3046 539.21 53.315 540.454 54.6363C541.697 55.9187 542.65 57.4538 543.31 59.2414C543.971 60.9902 544.262 62.9333 544.185 65.0707L544.126 67.2858H518.594L517.661 63.6717H540.454L539.638 64.6626L539.696 63.2053C539.618 61.5343 539.152 60.0575 538.297 58.7751C537.442 57.4926 536.335 56.4822 534.974 55.7439C533.653 55.0055 532.196 54.6363 530.602 54.6363C528.348 54.6363 526.405 55.1221 524.773 56.0936C523.141 57.0263 521.897 58.367 521.042 60.1158C520.226 61.8257 519.799 63.8854 519.76 66.2948C519.799 68.7043 520.304 70.8028 521.276 72.5904C522.247 74.3392 523.607 75.7188 525.356 76.7292C527.144 77.7007 529.203 78.1865 531.535 78.1865C533.206 78.1865 534.761 77.9145 536.199 77.3704C537.636 76.7875 539.094 75.8354 540.57 74.5141L542.786 77.6619C541.853 78.5946 540.745 79.4107 539.463 80.1102C538.219 80.7708 536.879 81.2955 535.441 81.6841C534.003 82.0727 532.565 82.267 531.127 82.267Z" fill="black"/>
<defs>
<filter id="filter0_f_5327_1609" x="-100.241" y="-3.10431" width="242.964" height="208.636" filterUnits="userSpaceOnUse" color-interpolation-filters="sRGB">
<feFlood flood-opacity="0" result="BackgroundImageFix"/>
<feBlend mode="normal" in="SourceGraphic" in2="BackgroundImageFix" result="shape"/>
<feGaussianBlur stdDeviation="23.0981" result="effect1_foregroundBlur_5327_1609"/>
</filter>
<filter id="filter1_f_5327_1609" x="-22.3332" y="-110.453" width="289.575" height="289.576" filterUnits="userSpaceOnUse" color-interpolation-filters="sRGB">
<feFlood flood-opacity="0" result="BackgroundImageFix"/>
<feBlend mode="normal" in="SourceGraphic" in2="BackgroundImageFix" result="shape"/>
<feGaussianBlur stdDeviation="34.6471" result="effect1_foregroundBlur_5327_1609"/>
</filter>
<linearGradient id="paint0_linear_5327_1609" x1="60.1952" y1="59.8027" x2="60.1952" y2="119.998" gradientUnits="userSpaceOnUse">
<stop stop-color="#2FD0C6" stop-opacity="0"/>
<stop offset="1" stop-color="#2FD0C6"/>
</linearGradient>
<linearGradient id="paint1_linear_5327_1609" x1="60.1952" y1="59.8027" x2="60.1952" y2="119.998" gradientUnits="userSpaceOnUse">
<stop stop-color="#2FD0C6" stop-opacity="0"/>
<stop offset="1" stop-color="#2FD0C6"/>
</linearGradient>
<linearGradient id="paint2_linear_5327_1609" x1="60.1952" y1="59.8027" x2="60.1952" y2="119.998" gradientUnits="userSpaceOnUse">
<stop stop-color="#2FD0C6" stop-opacity="0"/>
<stop offset="1" stop-color="#2FD0C6"/>
</linearGradient>
<linearGradient id="paint3_linear_5327_1609" x1="122.454" y1="-41.1383" x2="122.454" y2="109.807" gradientUnits="userSpaceOnUse">
<stop stop-color="#F9E4CC"/>
<stop offset="1" stop-color="#FF6100"/>
</linearGradient>
</defs>
</svg>
