<svg width="120" height="120" viewBox="0 0 120 120" fill="none" xmlns="http://www.w3.org/2000/svg">
<path d="M39.5977 59.6113L0 59.6113C2.40279e-06 75.5248 6.32141 90.7865 17.5736 102.039C28.8258 113.292 44.087 119.613 60 119.613C75.913 119.613 91.1742 113.292 102.426 102.039C113.679 90.7865 120 75.5248 120 59.6113L80.3947 59.6113C79.0388 65.634 75.2013 70.4551 66.7647 81.0541C64.7743 83.5547 62.5279 86.3768 59.9977 89.6123L59.9949 89.6125C57.4651 86.3775 55.219 83.5557 53.2288 81.0554L53.2276 81.054C44.7909 70.4549 40.9535 65.634 39.5977 59.6113Z" fill="url(#paint0_linear_5327_1592)"/>
<path d="M39.5977 59.6113L0 59.6113C2.40279e-06 75.5248 6.32141 90.7865 17.5736 102.039C28.8258 113.292 44.087 119.613 60 119.613C75.913 119.613 91.1742 113.292 102.426 102.039C113.679 90.7865 120 75.5248 120 59.6113L80.3947 59.6113C79.0388 65.634 75.2013 70.4551 66.7647 81.0541C64.7743 83.5547 62.5279 86.3768 59.9977 89.6123L59.9949 89.6125C57.4651 86.3775 55.219 83.5557 53.2288 81.0554L53.2276 81.054C44.7909 70.4549 40.9535 65.634 39.5977 59.6113Z" fill="url(#paint1_linear_5327_1592)"/>
<mask id="mask0_5327_1592" style="mask-type:alpha" maskUnits="userSpaceOnUse" x="0" y="59" width="120" height="61">
<path d="M39.5977 59.6113L0 59.6113C2.40279e-06 75.5248 6.32141 90.7865 17.5736 102.039C28.8258 113.292 44.087 119.613 60 119.613C75.913 119.613 91.1742 113.292 102.426 102.039C113.679 90.7865 120 75.5248 120 59.6113L80.3947 59.6113C79.0388 65.634 75.2013 70.4551 66.7647 81.0541C64.7743 83.5547 62.5279 86.3768 59.9977 89.6123L59.9949 89.6125C57.4651 86.3775 55.219 83.5557 53.2288 81.0554L53.2276 81.054C44.7909 70.4549 40.9535 65.634 39.5977 59.6113Z" fill="url(#paint2_linear_5327_1592)"/>
</mask>
<g mask="url(#mask0_5327_1592)">
<path d="M120 60.0018C120 44.0884 113.679 28.8267 102.426 17.5741C91.1742 6.32161 75.913 1.20143e-06 60 0C44.087 -1.20143e-06 28.8258 6.3216 17.5736 17.5741C6.32141 28.8266 2.4028e-06 44.0883 0 60.0018L60 60.0018H120Z" fill="#00BEB2"/>
<path fill-rule="evenodd" clip-rule="evenodd" d="M102.426 17.5741C113.679 28.8267 120 44.0884 120 60.0018H80.3021C80.7963 57.9862 81.0027 55.8509 81.0027 53.328C81.0027 41.7263 71.5982 32.3213 59.997 32.3209L59.9942 32.3209C48.3929 32.3212 38.9883 41.7263 38.9883 53.328C38.9883 55.851 39.1947 57.9862 39.6888 60.0018L0 60.0018C2.40281e-06 44.0883 6.32141 28.8266 17.5736 17.5741C28.8258 6.3216 44.087 -1.20144e-06 60 0C75.913 1.20144e-06 91.1742 6.32161 102.426 17.5741Z" fill="white"/>
</g>
<mask id="mask1_5327_1592" style="mask-type:alpha" maskUnits="userSpaceOnUse" x="0" y="0" width="120" height="61">
<path fill-rule="evenodd" clip-rule="evenodd" d="M102.426 17.5741C113.679 28.8267 120 44.0884 120 60.0018H80.3021C80.7963 57.9862 81.0027 55.8509 81.0027 53.328C81.0027 41.7263 71.5982 32.3213 59.997 32.3209L59.9942 32.3209C48.3929 32.3212 38.9883 41.7263 38.9883 53.328C38.9883 55.851 39.1947 57.9862 39.6888 60.0018L0 60.0018C2.40281e-06 44.0883 6.32141 28.8266 17.5736 17.5741C28.8258 6.3216 44.087 -1.20144e-06 60 0C75.913 1.20144e-06 91.1742 6.32161 102.426 17.5741Z" fill="#00BEB2"/>
</mask>
<g mask="url(#mask1_5327_1592)">
<g filter="url(#filter0_f_5327_1592)">
<path d="M8.49259 45.3234C-23.9069 63.7955 -9.30596 106.405 -48.8961 146.511C-88.4862 186.618 122.22 116.165 93.5194 113.233C64.8188 110.3 38.6951 28.1039 8.49259 45.3234Z" fill="#00C5B9"/>
</g>
<g filter="url(#filter1_f_5327_1592)">
<ellipse cx="75.2284" cy="75.2302" rx="75.2284" ry="75.2302" transform="matrix(0.941033 -0.338315 0.338296 0.94104 25.8164 -11.1201)" fill="url(#paint3_linear_5327_1592)"/>
</g>
</g>
<defs>
<filter id="filter0_f_5327_1592" x="-99.9161" y="-3.09289" width="242.18" height="207.964" filterUnits="userSpaceOnUse" color-interpolation-filters="sRGB">
<feFlood flood-opacity="0" result="BackgroundImageFix"/>
<feBlend mode="normal" in="SourceGraphic" in2="BackgroundImageFix" result="shape"/>
<feGaussianBlur stdDeviation="23.0235" result="effect1_foregroundBlur_5327_1592"/>
</filter>
<filter id="filter1_f_5327_1592" x="-22.2599" y="-110.098" width="288.637" height="288.643" filterUnits="userSpaceOnUse" color-interpolation-filters="sRGB">
<feFlood flood-opacity="0" result="BackgroundImageFix"/>
<feBlend mode="normal" in="SourceGraphic" in2="BackgroundImageFix" result="shape"/>
<feGaussianBlur stdDeviation="34.5352" result="effect1_foregroundBlur_5327_1592"/>
</filter>
<linearGradient id="paint0_linear_5327_1592" x1="60" y1="59.6113" x2="60" y2="119.613" gradientUnits="userSpaceOnUse">
<stop stop-color="#2FD0C6" stop-opacity="0"/>
<stop offset="1" stop-color="#2FD0C6"/>
</linearGradient>
<linearGradient id="paint1_linear_5327_1592" x1="60" y1="59.6113" x2="60" y2="119.613" gradientUnits="userSpaceOnUse">
<stop stop-color="#2FD0C6" stop-opacity="0"/>
<stop offset="1" stop-color="#2FD0C6"/>
</linearGradient>
<linearGradient id="paint2_linear_5327_1592" x1="60" y1="59.6113" x2="60" y2="119.613" gradientUnits="userSpaceOnUse">
<stop stop-color="#2FD0C6" stop-opacity="0"/>
<stop offset="1" stop-color="#2FD0C6"/>
</linearGradient>
<linearGradient id="paint3_linear_5327_1592" x1="75.2284" y1="0" x2="75.2284" y2="150.46" gradientUnits="userSpaceOnUse">
<stop stop-color="#F9E4CC"/>
<stop offset="1" stop-color="#FF6100"/>
</linearGradient>
</defs>
</svg>
